<svg xmlns="http://www.w3.org/2000/svg" width="1920" height="1080"><path d="M574,1291L391,1329L866,1275Z" fill="#856899" stroke="#856899" stroke-width="1.51"/><path d="M334,-208L440,-196L930,-200Z" fill="#cbdcec" stroke="#cbdcec" stroke-width="1.51"/><path d="M334,-208L930,-200L1200,-225Z" fill="#c2cee4" stroke="#c2cee4" stroke-width="1.51"/><path d="M5,-233L334,-208L1200,-225Z" fill="#cfdfed" stroke="#cfdfed" stroke-width="1.51"/><path d="M866,1275L391,1329L1203,1306Z" fill="#7d5d92" stroke="#7d5d92" stroke-width="1.51"/><path d="M1200,-225L1284,-212L1458,-202Z" fill="#beabd3" stroke="#beabd3" stroke-width="1.51"/><path d="M1200,-225L1458,-202L1643,-204Z" fill="#bea3cf" stroke="#bea3cf" stroke-width="1.51"/><path d="M1200,-225L1643,-204L1745,-204Z" fill="#be9dcc" stroke="#be9dcc" stroke-width="1.51"/><path d="M1203,1306L391,1329L1878,1336Z" fill="#744484" stroke="#744484" stroke-width="1.51"/><path d="M1299,1295L1203,1306L1878,1336Z" fill="#722e7c" stroke="#722e7c" stroke-width="1.51"/><path d="M1527,1251L1299,1295L1878,1336Z" fill="#73257b" stroke="#73257b" stroke-width="1.51"/><path d="M2030,792L1946,880L2061,1001Z" fill="#782f82" stroke="#782f82" stroke-width="1.51"/><path d="M2034,729L2030,792L2061,1001Z" fill="#773482" stroke="#773482" stroke-width="1.51"/><path d="M2054,520L2034,729L2061,1001Z" fill="#773e86" stroke="#773e86" stroke-width="1.51"/><path d="M1200,-225L1745,-204L2090,-199Z" fill="#bd94c4" stroke="#bd94c4" stroke-width="1.51"/><path d="M1745,-204L1887,-166L2090,-199Z" fill="#b587b5" stroke="#b587b5" stroke-width="1.51"/><path d="M1962,384L2053,402L2101,204Z" fill="#85679a" stroke="#85679a" stroke-width="1.51"/><path d="M2053,402L2054,520L2101,204Z" fill="#806295" stroke="#806295" stroke-width="1.51"/><path d="M2061,1001L2074,1091L2139,88Z" fill="#733f83" stroke="#733f83" stroke-width="1.51"/><path d="M2054,520L2061,1001L2139,88Z" fill="#77548d" stroke="#77548d" stroke-width="1.51"/><path d="M1943,106L2101,204L2139,88Z" fill="#92709e" stroke="#92709e" stroke-width="1.51"/><path d="M2069,-70L1943,106L2139,88Z" fill="#9976a2" stroke="#9976a2" stroke-width="1.51"/><path d="M2090,-199L2069,-70L2139,88Z" fill="#9c79a1" stroke="#9c79a1" stroke-width="1.51"/><path d="M2101,204L2054,520L2139,88Z" fill="#846897" stroke="#846897" stroke-width="1.51"/><path d="M113,1305L-42,1308L391,1329Z" fill="#9a77a1" stroke="#9a77a1" stroke-width="1.51"/><path d="M1911,658L2034,729L2054,520Z" fill="#7d4c8f" stroke="#7d4c8f" stroke-width="1.51"/><path d="M1892,1127L2036,1296L2074,1091Z" fill="#730a6e" stroke="#730a6e" stroke-width="1.51"/><path d="M1887,-166L2069,-70L2090,-199Z" fill="#a880aa" stroke="#a880aa" stroke-width="1.51"/><path d="M1883,255L1962,384L2101,204Z" fill="#8e6da1" stroke="#8e6da1" stroke-width="1.51"/><path d="M1943,106L1883,255L2101,204Z" fill="#9571a4" stroke="#9571a4" stroke-width="1.51"/><path d="M1894,-71L1943,106L2069,-70Z" fill="#a57dab" stroke="#a57dab" stroke-width="1.51"/><path d="M1888,544L1911,658L2054,520Z" fill="#835597" stroke="#835597" stroke-width="1.51"/><path d="M2053,402L1962,384L2054,520Z" fill="#815f97" stroke="#815f97" stroke-width="1.51"/><path d="M1887,-166L1894,-71L2069,-70Z" fill="#ad82af" stroke="#ad82af" stroke-width="1.51"/><path d="M2061,1001L1943,1033L2074,1091Z" fill="#741d77" stroke="#741d77" stroke-width="1.51"/><path d="M1943,1033L1892,1127L2074,1091Z" fill="#781979" stroke="#781979" stroke-width="1.51"/><path d="M1946,880L1943,1033L2061,1001Z" fill="#7a2680" stroke="#7a2680" stroke-width="1.51"/><path d="M1962,384L1888,544L2054,520Z" fill="#845d9a" stroke="#845d9a" stroke-width="1.51"/><path d="M1661,1248L1527,1251L1878,1336Z" fill="#731d77" stroke="#731d77" stroke-width="1.51"/><path d="M1892,1127L1878,1336L2036,1296Z" fill="#6e086a" stroke="#6e086a" stroke-width="1.51"/><path d="M1016,1276L866,1275L1203,1306Z" fill="#7a508d" stroke="#7a508d" stroke-width="1.51"/><path d="M1824,1279L1878,1336L1892,1127Z" fill="#750b70" stroke="#750b70" stroke-width="1.51"/><path d="M1911,658L1835,737L2030,792Z" fill="#824591" stroke="#824591" stroke-width="1.51"/><path d="M1911,658L2030,792L2034,729Z" fill="#7d428c" stroke="#7d428c" stroke-width="1.51"/><path d="M1835,737L1946,880L2030,792Z" fill="#803c8c" stroke="#803c8c" stroke-width="1.51"/><path d="M1841,852L1772,1008L1943,1033Z" fill="#852c8c" stroke="#852c8c" stroke-width="1.51"/><path d="M1894,-71L1801,-27L1943,106Z" fill="#ad80b2" stroke="#ad80b2" stroke-width="1.51"/><path d="M1835,737L1841,852L1946,880Z" fill="#863c92" stroke="#863c92" stroke-width="1.51"/><path d="M1841,852L1943,1033L1946,880Z" fill="#812f8a" stroke="#812f8a" stroke-width="1.51"/><path d="M1838,414L1888,544L1962,384Z" fill="#8d64a2" stroke="#8d64a2" stroke-width="1.51"/><path d="M1883,255L1838,414L1962,384Z" fill="#926ca6" stroke="#926ca6" stroke-width="1.51"/><path d="M1832,1116L1892,1127L1943,1033Z" fill="#801a7f" stroke="#801a7f" stroke-width="1.51"/><path d="M1742,212L1883,255L1943,106Z" fill="#a177ae" stroke="#a177ae" stroke-width="1.51"/><path d="M1755,64L1742,212L1943,106Z" fill="#a57cb3" stroke="#a57cb3" stroke-width="1.51"/><path d="M1801,-27L1755,64L1943,106Z" fill="#ac80b4" stroke="#ac80b4" stroke-width="1.51"/><path d="M1772,1008L1832,1116L1943,1033Z" fill="#832185" stroke="#832185" stroke-width="1.51"/><path d="M1832,1116L1824,1279L1892,1127Z" fill="#7f107a" stroke="#7f107a" stroke-width="1.51"/><path d="M1888,544L1760,551L1911,658Z" fill="#8b589e" stroke="#8b589e" stroke-width="1.51"/><path d="M1760,551L1835,737L1911,658Z" fill="#8a529d" stroke="#8a529d" stroke-width="1.51"/><path d="M1824,1279L1661,1248L1878,1336Z" fill="#711270" stroke="#711270" stroke-width="1.51"/><path d="M1742,212L1838,414L1883,255Z" fill="#9973ad" stroke="#9973ad" stroke-width="1.51"/><path d="M1745,-204L1801,-27L1887,-166Z" fill="#b88abb" stroke="#b88abb" stroke-width="1.51"/><path d="M1838,414L1760,551L1888,544Z" fill="#8e62a4" stroke="#8e62a4" stroke-width="1.51"/><path d="M1887,-166L1801,-27L1894,-71Z" fill="#b586b7" stroke="#b586b7" stroke-width="1.51"/><path d="M1742,212L1676,372L1838,414Z" fill="#9675b0" stroke="#9675b0" stroke-width="1.51"/><path d="M1661,1248L1824,1279L1832,1116Z" fill="#7b1779" stroke="#7b1779" stroke-width="1.51"/><path d="M1639,1172L1661,1248L1832,1116Z" fill="#811f81" stroke="#811f81" stroke-width="1.51"/><path d="M1760,551L1584,687L1835,737Z" fill="#8b57a2" stroke="#8b57a2" stroke-width="1.51"/><path d="M1676,372L1760,551L1838,414Z" fill="#916bab" stroke="#916bab" stroke-width="1.51"/><path d="M1633,963L1772,1008L1841,852Z" fill="#863693" stroke="#863693" stroke-width="1.51"/><path d="M1835,737L1579,837L1841,852Z" fill="#884599" stroke="#884599" stroke-width="1.51"/><path d="M1579,837L1633,963L1841,852Z" fill="#884199" stroke="#884199" stroke-width="1.51"/><path d="M1584,687L1579,837L1835,737Z" fill="#8a50a0" stroke="#8a50a0" stroke-width="1.51"/><path d="M1772,1008L1639,1172L1832,1116Z" fill="#842486" stroke="#842486" stroke-width="1.51"/><path d="M1745,-204L1628,-53L1801,-27Z" fill="#b78dbf" stroke="#b78dbf" stroke-width="1.51"/><path d="M1676,372L1616,491L1760,551Z" fill="#906dae" stroke="#906dae" stroke-width="1.51"/><path d="M1628,-53L1755,64L1801,-27Z" fill="#b089bc" stroke="#b089bc" stroke-width="1.51"/><path d="M1643,-204L1628,-53L1745,-204Z" fill="#ba93c4" stroke="#ba93c4" stroke-width="1.51"/><path d="M1636,98L1742,212L1755,64Z" fill="#a682b8" stroke="#a682b8" stroke-width="1.51"/><path d="M1633,963L1639,1172L1772,1008Z" fill="#86308f" stroke="#86308f" stroke-width="1.51"/><path d="M1594,191L1676,372L1742,212Z" fill="#9c7eb7" stroke="#9c7eb7" stroke-width="1.51"/><path d="M1628,-53L1636,98L1755,64Z" fill="#ad89be" stroke="#ad89be" stroke-width="1.51"/><path d="M1616,491L1584,687L1760,551Z" fill="#8c65aa" stroke="#8c65aa" stroke-width="1.51"/><path d="M1636,98L1594,191L1742,212Z" fill="#a383bb" stroke="#a383bb" stroke-width="1.51"/><path d="M440,-196L784,-174L930,-200Z" fill="#c4d5e7" stroke="#c4d5e7" stroke-width="1.51"/><path d="M1483,220L1467,364L1594,191Z" fill="#9d87bf" stroke="#9d87bf" stroke-width="1.51"/><path d="M1461,971L1515,1191L1633,963Z" fill="#873a97" stroke="#873a97" stroke-width="1.51"/><path d="M1628,-53L1511,47L1636,98Z" fill="#ae8ec3" stroke="#ae8ec3" stroke-width="1.51"/><path d="M1633,963L1515,1191L1639,1172Z" fill="#852f8e" stroke="#852f8e" stroke-width="1.51"/><path d="M1467,364L1616,491L1676,372Z" fill="#9378b6" stroke="#9378b6" stroke-width="1.51"/><path d="M1594,191L1467,364L1676,372Z" fill="#9981bb" stroke="#9981bb" stroke-width="1.51"/><path d="M1499,490L1584,687L1616,491Z" fill="#8c6bb0" stroke="#8c6bb0" stroke-width="1.51"/><path d="M1506,-59L1628,-53L1643,-204Z" fill="#b795c7" stroke="#b795c7" stroke-width="1.51"/><path d="M1639,1172L1527,1251L1661,1248Z" fill="#7c2682" stroke="#7c2682" stroke-width="1.51"/><path d="M1467,364L1499,490L1616,491Z" fill="#9178b7" stroke="#9178b7" stroke-width="1.51"/><path d="M1515,1191L1527,1251L1639,1172Z" fill="#7f2a87" stroke="#7f2a87" stroke-width="1.51"/><path d="M1458,-202L1506,-59L1643,-204Z" fill="#ba9bcb" stroke="#ba9bcb" stroke-width="1.51"/><path d="M1506,-59L1511,47L1628,-53Z" fill="#b294c7" stroke="#b294c7" stroke-width="1.51"/><path d="M1579,837L1461,971L1633,963Z" fill="#89449e" stroke="#89449e" stroke-width="1.51"/><path d="M1511,47L1594,191L1636,98Z" fill="#a88ac1" stroke="#a88ac1" stroke-width="1.51"/><path d="M1496,708L1579,837L1584,687Z" fill="#8a57a7" stroke="#8a57a7" stroke-width="1.51"/><path d="M1476,847L1461,971L1579,837Z" fill="#8a4da2" stroke="#8a4da2" stroke-width="1.51"/><path d="M1499,490L1496,708L1584,687Z" fill="#8c66ae" stroke="#8c66ae" stroke-width="1.51"/><path d="M1496,708L1476,847L1579,837Z" fill="#8a55a6" stroke="#8a55a6" stroke-width="1.51"/><path d="M1511,47L1483,220L1594,191Z" fill="#a58bc2" stroke="#a58bc2" stroke-width="1.51"/><path d="M1386,260L1467,364L1483,220Z" fill="#9b8ac1" stroke="#9b8ac1" stroke-width="1.51"/><path d="M1281,591L1496,708L1499,490Z" fill="#8c70b3" stroke="#8c70b3" stroke-width="1.51"/><path d="M1282,41L1483,220L1511,47Z" fill="#a895c7" stroke="#a895c7" stroke-width="1.51"/><path d="M1461,971L1376,1004L1515,1191Z" fill="#884098" stroke="#884098" stroke-width="1.51"/><path d="M1376,1004L1306,1096L1515,1191Z" fill="#884097" stroke="#884097" stroke-width="1.51"/><path d="M1515,1191L1299,1295L1527,1251Z" fill="#7b3285" stroke="#7b3285" stroke-width="1.51"/><path d="M1282,41L1386,260L1483,220Z" fill="#a394c6" stroke="#a394c6" stroke-width="1.51"/><path d="M1281,591L1280,691L1496,708Z" fill="#8c6eb2" stroke="#8c6eb2" stroke-width="1.51"/><path d="M1458,-202L1289,-98L1506,-59Z" fill="#b9a1ce" stroke="#b9a1ce" stroke-width="1.51"/><path d="M1506,-59L1282,41L1511,47Z" fill="#b09ac9" stroke="#b09ac9" stroke-width="1.51"/><path d="M1306,1096L1299,1295L1515,1191Z" fill="#833b8e" stroke="#833b8e" stroke-width="1.51"/><path d="M1467,364L1359,391L1499,490Z" fill="#9380bb" stroke="#9380bb" stroke-width="1.51"/><path d="M1289,-98L1282,41L1506,-59Z" fill="#b4a1cd" stroke="#b4a1cd" stroke-width="1.51"/><path d="M1280,691L1476,847L1496,708Z" fill="#8b61ab" stroke="#8b61ab" stroke-width="1.51"/><path d="M1346,892L1461,971L1476,847Z" fill="#8a50a4" stroke="#8a50a4" stroke-width="1.51"/><path d="M1280,691L1346,892L1476,847Z" fill="#8b5eaa" stroke="#8b5eaa" stroke-width="1.51"/><path d="M1359,391L1281,591L1499,490Z" fill="#8f7dba" stroke="#8f7dba" stroke-width="1.51"/><path d="M1284,-212L1289,-98L1458,-202Z" fill="#bba8d1" stroke="#bba8d1" stroke-width="1.51"/><path d="M1346,892L1376,1004L1461,971Z" fill="#8a4da2" stroke="#8a4da2" stroke-width="1.51"/><path d="M1386,260L1359,391L1467,364Z" fill="#978ac0" stroke="#978ac0" stroke-width="1.51"/><path d="M1280,691L1219,708L1346,892Z" fill="#8c68af" stroke="#8c68af" stroke-width="1.51"/><path d="M1219,708L1183,869L1346,892Z" fill="#8c65ae" stroke="#8c65ae" stroke-width="1.51"/><path d="M1193,439L1281,591L1359,391Z" fill="#9086be" stroke="#9086be" stroke-width="1.51"/><path d="M1282,41L1223,106L1386,260Z" fill="#a69bca" stroke="#a69bca" stroke-width="1.51"/><path d="M1223,106L1238,273L1386,260Z" fill="#a098c8" stroke="#a098c8" stroke-width="1.51"/><path d="M1238,273L1359,391L1386,260Z" fill="#9890c3" stroke="#9890c3" stroke-width="1.51"/><path d="M1346,892L1142,992L1376,1004Z" fill="#8a54a5" stroke="#8a54a5" stroke-width="1.51"/><path d="M1142,992L1306,1096L1376,1004Z" fill="#8a4fa0" stroke="#8a4fa0" stroke-width="1.51"/><path d="M1185,1134L1299,1295L1306,1096Z" fill="#864494" stroke="#864494" stroke-width="1.51"/><path d="M1183,869L1142,992L1346,892Z" fill="#8b5daa" stroke="#8b5daa" stroke-width="1.51"/><path d="M1238,273L1193,439L1359,391Z" fill="#9591c4" stroke="#9591c4" stroke-width="1.51"/><path d="M1193,439L1162,488L1281,591Z" fill="#8e87be" stroke="#8e87be" stroke-width="1.51"/><path d="M1139,-68L1282,41L1289,-98Z" fill="#b4a9d2" stroke="#b4a9d2" stroke-width="1.51"/><path d="M1284,-212L1200,-225L1289,-98Z" fill="#bcaed4" stroke="#bcaed4" stroke-width="1.51"/><path d="M1185,1134L1203,1306L1299,1295Z" fill="#7d438c" stroke="#7d438c" stroke-width="1.51"/><path d="M1142,992L1185,1134L1306,1096Z" fill="#8a509e" stroke="#8a509e" stroke-width="1.51"/><path d="M1219,708L1280,691L1281,591Z" fill="#8d74b5" stroke="#8d74b5" stroke-width="1.51"/><path d="M1200,-225L1139,-68L1289,-98Z" fill="#b9afd5" stroke="#b9afd5" stroke-width="1.51"/><path d="M1139,-68L1223,106L1282,41Z" fill="#aea7d0" stroke="#aea7d0" stroke-width="1.51"/><path d="M1162,488L1219,708L1281,591Z" fill="#8d7eba" stroke="#8d7eba" stroke-width="1.51"/><path d="M1046,250L1082,444L1193,439Z" fill="#949ac9" stroke="#949ac9" stroke-width="1.51"/><path d="M1162,488L989,577L1219,708Z" fill="#8d85be" stroke="#8d85be" stroke-width="1.51"/><path d="M989,577L1012,729L1219,708Z" fill="#8d81bb" stroke="#8d81bb" stroke-width="1.51"/><path d="M1139,-68L1065,-28L1223,106Z" fill="#b0aed3" stroke="#b0aed3" stroke-width="1.51"/><path d="M1223,106L1046,250L1238,273Z" fill="#a0a1cc" stroke="#a0a1cc" stroke-width="1.51"/><path d="M1046,250L1193,439L1238,273Z" fill="#979bc9" stroke="#979bc9" stroke-width="1.51"/><path d="M930,-200L984,-164L1200,-225Z" fill="#bdbfdd" stroke="#bdbfdd" stroke-width="1.51"/><path d="M1185,1134L1016,1276L1203,1306Z" fill="#7f4a91" stroke="#7f4a91" stroke-width="1.51"/><path d="M1012,729L1183,869L1219,708Z" fill="#8d72b4" stroke="#8d72b4" stroke-width="1.51"/><path d="M1065,-28L1013,69L1223,106Z" fill="#adaed3" stroke="#adaed3" stroke-width="1.51"/><path d="M1013,69L1046,250L1223,106Z" fill="#a5a9d1" stroke="#a5a9d1" stroke-width="1.51"/><path d="M1012,729L1010,847L1183,869Z" fill="#8d73b4" stroke="#8d73b4" stroke-width="1.51"/><path d="M998,1137L1016,1276L1185,1134Z" fill="#88539a" stroke="#88539a" stroke-width="1.51"/><path d="M984,-164L1139,-68L1200,-225Z" fill="#bbb8d9" stroke="#bbb8d9" stroke-width="1.51"/><path d="M1142,992L1024,1041L1185,1134Z" fill="#8b59a3" stroke="#8b59a3" stroke-width="1.51"/><path d="M1082,444L1162,488L1193,439Z" fill="#9091c3" stroke="#9091c3" stroke-width="1.51"/><path d="M1010,847L1142,992L1183,869Z" fill="#8c67ae" stroke="#8c67ae" stroke-width="1.51"/><path d="M1024,1041L998,1137L1185,1134Z" fill="#8b59a1" stroke="#8b59a1" stroke-width="1.51"/><path d="M1082,444L989,577L1162,488Z" fill="#8e91c4" stroke="#8e91c4" stroke-width="1.51"/><path d="M984,-164L1065,-28L1139,-68Z" fill="#b7b9d9" stroke="#b7b9d9" stroke-width="1.51"/><path d="M1010,847L1024,1041L1142,992Z" fill="#8c66ad" stroke="#8c66ad" stroke-width="1.51"/><path d="M1010,847L918,942L1024,1041Z" fill="#8c6db1" stroke="#8c6db1" stroke-width="1.51"/><path d="M862,520L989,577L1082,444Z" fill="#8d97c7" stroke="#8d97c7" stroke-width="1.51"/><path d="M853,420L862,520L1082,444Z" fill="#919ecb" stroke="#919ecb" stroke-width="1.51"/><path d="M1046,250L915,273L1082,444Z" fill="#96a5ce" stroke="#96a5ce" stroke-width="1.51"/><path d="M915,273L853,420L1082,444Z" fill="#94a5ce" stroke="#94a5ce" stroke-width="1.51"/><path d="M1013,69L915,273L1046,250Z" fill="#a0aed3" stroke="#a0aed3" stroke-width="1.51"/><path d="M904,-84L1013,69L1065,-28Z" fill="#b1bada" stroke="#b1bada" stroke-width="1.51"/><path d="M984,-164L904,-84L1065,-28Z" fill="#b7bfdc" stroke="#b7bfdc" stroke-width="1.51"/><path d="M440,-196L533,-160L784,-174Z" fill="#c9dbea" stroke="#c9dbea" stroke-width="1.51"/><path d="M989,577L848,640L1012,729Z" fill="#8d8cc1" stroke="#8d8cc1" stroke-width="1.51"/><path d="M877,824L1010,847L1012,729Z" fill="#8d7bb9" stroke="#8d7bb9" stroke-width="1.51"/><path d="M866,38L915,273L1013,69Z" fill="#a7b6d7" stroke="#a7b6d7" stroke-width="1.51"/><path d="M904,-84L866,38L1013,69Z" fill="#b0bddb" stroke="#b0bddb" stroke-width="1.51"/><path d="M998,1137L866,1275L1016,1276Z" fill="#825897" stroke="#825897" stroke-width="1.51"/><path d="M918,942L998,1137L1024,1041Z" fill="#8c65aa" stroke="#8c65aa" stroke-width="1.51"/><path d="M830,1193L866,1275L998,1137Z" fill="#885e9c" stroke="#885e9c" stroke-width="1.51"/><path d="M918,942L830,1193L998,1137Z" fill="#8e65a8" stroke="#8e65a8" stroke-width="1.51"/><path d="M877,824L918,942L1010,847Z" fill="#8e76b6" stroke="#8e76b6" stroke-width="1.51"/><path d="M848,640L877,824L1012,729Z" fill="#8e85be" stroke="#8e85be" stroke-width="1.51"/><path d="M765,1152L830,1193L918,942Z" fill="#9069a9" stroke="#9069a9" stroke-width="1.51"/><path d="M930,-200L904,-84L984,-164Z" fill="#bbc4df" stroke="#bbc4df" stroke-width="1.51"/><path d="M862,520L848,640L989,577Z" fill="#8e96c6" stroke="#8e96c6" stroke-width="1.51"/><path d="M680,1238L574,1291L866,1275Z" fill="#85659b" stroke="#85659b" stroke-width="1.51"/><path d="M735,96L737,219L866,38Z" fill="#acc0dc" stroke="#acc0dc" stroke-width="1.51"/><path d="M866,38L737,219L915,273Z" fill="#a5b9d8" stroke="#a5b9d8" stroke-width="1.51"/><path d="M704,1023L765,1152L918,942Z" fill="#9271b0" stroke="#9271b0" stroke-width="1.51"/><path d="M784,-174L904,-84L930,-200Z" fill="#bdc9e1" stroke="#bdc9e1" stroke-width="1.51"/><path d="M848,640L743,693L877,824Z" fill="#918cc1" stroke="#918cc1" stroke-width="1.51"/><path d="M737,219L853,420L915,273Z" fill="#9cb2d5" stroke="#9cb2d5" stroke-width="1.51"/><path d="M877,824L765,835L918,942Z" fill="#907cb9" stroke="#907cb9" stroke-width="1.51"/><path d="M765,835L704,1023L918,942Z" fill="#9379b8" stroke="#9379b8" stroke-width="1.51"/><path d="M787,595L848,640L862,520Z" fill="#9199c8" stroke="#9199c8" stroke-width="1.51"/><path d="M743,693L765,835L877,824Z" fill="#9288bf" stroke="#9288bf" stroke-width="1.51"/><path d="M685,-89L866,38L904,-84Z" fill="#b8c7e0" stroke="#b8c7e0" stroke-width="1.51"/><path d="M784,-174L685,-89L904,-84Z" fill="#bdcce3" stroke="#bdcce3" stroke-width="1.51"/><path d="M737,219L710,415L853,420Z" fill="#9bb3d6" stroke="#9bb3d6" stroke-width="1.51"/><path d="M685,-89L735,96L866,38Z" fill="#b5c8e0" stroke="#b5c8e0" stroke-width="1.51"/><path d="M853,420L710,415L862,520Z" fill="#95a7d0" stroke="#95a7d0" stroke-width="1.51"/><path d="M830,1193L680,1238L866,1275Z" fill="#87629c" stroke="#87629c" stroke-width="1.51"/><path d="M710,415L787,595L862,520Z" fill="#93a3cd" stroke="#93a3cd" stroke-width="1.51"/><path d="M787,595L743,693L848,640Z" fill="#9296c6" stroke="#9296c6" stroke-width="1.51"/><path d="M765,1152L680,1238L830,1193Z" fill="#8e67a2" stroke="#8e67a2" stroke-width="1.51"/><path d="M621,979L704,1023L765,835Z" fill="#957ebb" stroke="#957ebb" stroke-width="1.51"/><path d="M533,-160L685,-89L784,-174Z" fill="#c3d6e9" stroke="#c3d6e9" stroke-width="1.51"/><path d="M710,415L599,546L787,595Z" fill="#95a8cf" stroke="#95a8cf" stroke-width="1.51"/><path d="M622,677L743,693L787,595Z" fill="#9599c8" stroke="#9599c8" stroke-width="1.51"/><path d="M599,546L622,677L787,595Z" fill="#95a1cc" stroke="#95a1cc" stroke-width="1.51"/><path d="M685,-89L593,-26L735,96Z" fill="#b9cfe4" stroke="#b9cfe4" stroke-width="1.51"/><path d="M593,-26L582,46L735,96Z" fill="#b7cee4" stroke="#b7cee4" stroke-width="1.51"/><path d="M540,199L710,415L737,219Z" fill="#a3bfdc" stroke="#a3bfdc" stroke-width="1.51"/><path d="M704,1023L592,1130L765,1152Z" fill="#9572ae" stroke="#9572ae" stroke-width="1.51"/><path d="M592,1130L680,1238L765,1152Z" fill="#936da7" stroke="#936da7" stroke-width="1.51"/><path d="M743,693L622,677L765,835Z" fill="#9591c4" stroke="#9591c4" stroke-width="1.51"/><path d="M622,677L552,864L765,835Z" fill="#9790c4" stroke="#9790c4" stroke-width="1.51"/><path d="M552,864L621,979L765,835Z" fill="#9886bf" stroke="#9886bf" stroke-width="1.51"/><path d="M540,199L561,438L710,415Z" fill="#a1bcda" stroke="#a1bcda" stroke-width="1.51"/><path d="M582,46L540,199L735,96Z" fill="#b2cae2" stroke="#b2cae2" stroke-width="1.51"/><path d="M735,96L540,199L737,219Z" fill="#abc4de" stroke="#abc4de" stroke-width="1.51"/><path d="M621,979L592,1130L704,1023Z" fill="#977ab4" stroke="#977ab4" stroke-width="1.51"/><path d="M561,438L599,546L710,415Z" fill="#9bb1d4" stroke="#9bb1d4" stroke-width="1.51"/><path d="M533,-160L593,-26L685,-89Z" fill="#c3d6e8" stroke="#c3d6e8" stroke-width="1.51"/><path d="M592,1130L574,1291L680,1238Z" fill="#906da3" stroke="#906da3" stroke-width="1.51"/><path d="M540,199L442,434L561,438Z" fill="#a5bfdc" stroke="#a5bfdc" stroke-width="1.51"/><path d="M451,1188L574,1291L592,1130Z" fill="#9671a7" stroke="#9671a7" stroke-width="1.51"/><path d="M454,569L486,708L599,546Z" fill="#9ea7cf" stroke="#9ea7cf" stroke-width="1.51"/><path d="M414,968L592,1130L621,979Z" fill="#9d7eb8" stroke="#9d7eb8" stroke-width="1.51"/><path d="M552,864L414,968L621,979Z" fill="#9e86be" stroke="#9e86be" stroke-width="1.51"/><path d="M599,546L486,708L622,677Z" fill="#9ba2cc" stroke="#9ba2cc" stroke-width="1.51"/><path d="M486,708L552,864L622,677Z" fill="#9c97c7" stroke="#9c97c7" stroke-width="1.51"/><path d="M486,708L445,829L552,864Z" fill="#9f95c6" stroke="#9f95c6" stroke-width="1.51"/><path d="M414,968L451,1188L592,1130Z" fill="#9f7ab3" stroke="#9f7ab3" stroke-width="1.51"/><path d="M533,-160L406,-90L593,-26Z" fill="#c8daea" stroke="#c8daea" stroke-width="1.51"/><path d="M561,438L454,569L599,546Z" fill="#9dafd3" stroke="#9dafd3" stroke-width="1.51"/><path d="M396,39L540,199L582,46Z" fill="#bacfe4" stroke="#bacfe4" stroke-width="1.51"/><path d="M396,39L582,46L593,-26Z" fill="#bfd3e6" stroke="#bfd3e6" stroke-width="1.51"/><path d="M406,-90L396,39L593,-26Z" fill="#c6d8e9" stroke="#c6d8e9" stroke-width="1.51"/><path d="M400,186L334,355L442,434Z" fill="#aec7e0" stroke="#aec7e0" stroke-width="1.51"/><path d="M396,39L400,186L540,199Z" fill="#bacee4" stroke="#bacee4" stroke-width="1.51"/><path d="M400,186L442,434L540,199Z" fill="#aec7e0" stroke="#aec7e0" stroke-width="1.51"/><path d="M442,434L454,569L561,438Z" fill="#a1b5d6" stroke="#a1b5d6" stroke-width="1.51"/><path d="M451,1188L391,1329L574,1291Z" fill="#916f9f" stroke="#916f9f" stroke-width="1.51"/><path d="M445,829L414,968L552,864Z" fill="#a18dc2" stroke="#a18dc2" stroke-width="1.51"/><path d="M440,-196L406,-90L533,-160Z" fill="#cedeec" stroke="#cedeec" stroke-width="1.51"/><path d="M414,968L286,1155L451,1188Z" fill="#a47db4" stroke="#a47db4" stroke-width="1.51"/><path d="M454,569L310,736L486,708Z" fill="#a4a4ce" stroke="#a4a4ce" stroke-width="1.51"/><path d="M310,736L445,829L486,708Z" fill="#a49bca" stroke="#a49bca" stroke-width="1.51"/><path d="M310,797L414,968L445,829Z" fill="#a592c5" stroke="#a592c5" stroke-width="1.51"/><path d="M310,736L310,797L445,829Z" fill="#a79ac9" stroke="#a79ac9" stroke-width="1.51"/><path d="M324,1259L391,1329L451,1188Z" fill="#9672a3" stroke="#9672a3" stroke-width="1.51"/><path d="M442,434L253,554L454,569Z" fill="#a5b5d6" stroke="#a5b5d6" stroke-width="1.51"/><path d="M253,554L310,736L454,569Z" fill="#a7add2" stroke="#a7add2" stroke-width="1.51"/><path d="M310,797L273,952L414,968Z" fill="#a890c4" stroke="#a890c4" stroke-width="1.51"/><path d="M334,-208L406,-90L440,-196Z" fill="#d3e1ee" stroke="#d3e1ee" stroke-width="1.51"/><path d="M286,1155L324,1259L451,1188Z" fill="#a078ab" stroke="#a078ab" stroke-width="1.51"/><path d="M281,209L334,355L400,186Z" fill="#b7cde3" stroke="#b7cde3" stroke-width="1.51"/><path d="M273,952L286,1155L414,968Z" fill="#a886bc" stroke="#a886bc" stroke-width="1.51"/><path d="M334,355L253,554L442,434Z" fill="#abbddb" stroke="#abbddb" stroke-width="1.51"/><path d="M302,-27L396,39L406,-90Z" fill="#cbdceb" stroke="#cbdceb" stroke-width="1.51"/><path d="M5,-233L167,-155L334,-208Z" fill="#e1ecf4" stroke="#e1ecf4" stroke-width="1.51"/><path d="M396,39L251,67L400,186Z" fill="#c2d5e8" stroke="#c2d5e8" stroke-width="1.51"/><path d="M251,67L281,209L400,186Z" fill="#c0d3e6" stroke="#c0d3e6" stroke-width="1.51"/><path d="M324,1259L113,1305L391,1329Z" fill="#9674a0" stroke="#9674a0" stroke-width="1.51"/><path d="M334,-208L302,-27L406,-90Z" fill="#d2e1ee" stroke="#d2e1ee" stroke-width="1.51"/><path d="M302,-27L251,67L396,39Z" fill="#cadbea" stroke="#cadbea" stroke-width="1.51"/><path d="M253,554L162,591L310,736Z" fill="#adb0d4" stroke="#adb0d4" stroke-width="1.51"/><path d="M281,209L103,379L334,355Z" fill="#b7cde3" stroke="#b7cde3" stroke-width="1.51"/><path d="M103,379L253,554L334,355Z" fill="#b2c4df" stroke="#b2c4df" stroke-width="1.51"/><path d="M167,-155L302,-27L334,-208Z" fill="#d8e5f0" stroke="#d8e5f0" stroke-width="1.51"/><path d="M273,952L94,990L286,1155Z" fill="#ae89be" stroke="#ae89be" stroke-width="1.51"/><path d="M94,990L107,1152L286,1155Z" fill="#b086b9" stroke="#b086b9" stroke-width="1.51"/><path d="M131,884L273,952L310,797Z" fill="#ad96c8" stroke="#ad96c8" stroke-width="1.51"/><path d="M162,591L140,736L310,736Z" fill="#afaad2" stroke="#afaad2" stroke-width="1.51"/><path d="M286,1155L113,1305L324,1259Z" fill="#a079a8" stroke="#a079a8" stroke-width="1.51"/><path d="M251,67L179,88L281,209Z" fill="#c7d8e9" stroke="#c7d8e9" stroke-width="1.51"/><path d="M92,231L103,379L281,209Z" fill="#bfd3e7" stroke="#bfd3e7" stroke-width="1.51"/><path d="M140,736L131,884L310,797Z" fill="#af9fcc" stroke="#af9fcc" stroke-width="1.51"/><path d="M140,736L310,797L310,736Z" fill="#aca2cd" stroke="#aca2cd" stroke-width="1.51"/><path d="M107,1152L113,1305L286,1155Z" fill="#a97eae" stroke="#a97eae" stroke-width="1.51"/><path d="M108,-25L251,67L302,-27Z" fill="#d1e0ee" stroke="#d1e0ee" stroke-width="1.51"/><path d="M167,-155L108,-25L302,-27Z" fill="#d8e6f1" stroke="#d8e6f1" stroke-width="1.51"/><path d="M103,379L162,591L253,554Z" fill="#b2bfdc" stroke="#b2bfdc" stroke-width="1.51"/><path d="M179,88L92,231L281,209Z" fill="#c5d8e8" stroke="#c5d8e8" stroke-width="1.51"/><path d="M108,-25L179,88L251,67Z" fill="#d0dfed" stroke="#d0dfed" stroke-width="1.51"/><path d="M131,884L94,990L273,952Z" fill="#b093c6" stroke="#b093c6" stroke-width="1.51"/><path d="M94,990L36,1042L107,1152Z" fill="#b58cbe" stroke="#b58cbe" stroke-width="1.51"/><path d="M-35,691L140,736L162,591Z" fill="#b5b1d5" stroke="#b5b1d5" stroke-width="1.51"/><path d="M103,379L-13,556L162,591Z" fill="#b6c2de" stroke="#b6c2de" stroke-width="1.51"/><path d="M108,-25L-27,44L179,88Z" fill="#d5e4ef" stroke="#d5e4ef" stroke-width="1.51"/><path d="M-27,44L92,231L179,88Z" fill="#cfdfec" stroke="#cfdfec" stroke-width="1.51"/><path d="M-13,556L-35,691L162,591Z" fill="#b8b9da" stroke="#b8b9da" stroke-width="1.51"/><path d="M-57,-114L108,-25L167,-155Z" fill="#e0ecf4" stroke="#e0ecf4" stroke-width="1.51"/><path d="M5,-233L-57,-114L167,-155Z" fill="#e6f0f7" stroke="#e6f0f7" stroke-width="1.51"/><path d="M36,1042L32,1115L107,1152Z" fill="#b58abc" stroke="#b58abc" stroke-width="1.51"/><path d="M-23,387L-13,556L103,379Z" fill="#bccae3" stroke="#bccae3" stroke-width="1.51"/><path d="M92,231L-22,288L103,379Z" fill="#c2d6e8" stroke="#c2d6e8" stroke-width="1.51"/><path d="M107,1152L-42,1308L113,1305Z" fill="#a77faa" stroke="#a77faa" stroke-width="1.51"/><path d="M-71,883L131,884L140,736Z" fill="#b6a1ce" stroke="#b6a1ce" stroke-width="1.51"/><path d="M-35,691L-71,883L140,736Z" fill="#b9a9d2" stroke="#b9a9d2" stroke-width="1.51"/><path d="M32,1115L-42,1308L107,1152Z" fill="#b183b3" stroke="#b183b3" stroke-width="1.51"/><path d="M-71,883L94,990L131,884Z" fill="#b799ca" stroke="#b799ca" stroke-width="1.51"/><path d="M-22,288L-23,387L103,379Z" fill="#c0d3e6" stroke="#c0d3e6" stroke-width="1.51"/><path d="M-27,44L-22,288L92,231Z" fill="#cdddec" stroke="#cdddec" stroke-width="1.51"/><path d="M-57,-114L-27,44L108,-25Z" fill="#deeaf3" stroke="#deeaf3" stroke-width="1.51"/><path d="M-71,883L36,1042L94,990Z" fill="#b895c7" stroke="#b895c7" stroke-width="1.51"/><path d="M-27,44L-146,96L-22,288Z" fill="#d4e2ee" stroke="#d4e2ee" stroke-width="1.51"/><path d="M-129,1253L-42,1308L32,1115Z" fill="#af83b0" stroke="#af83b0" stroke-width="1.51"/><path d="M-142,1168L-129,1253L32,1115Z" fill="#b787b6" stroke="#b787b6" stroke-width="1.51"/><path d="M-71,883L-185,995L36,1042Z" fill="#bb97c9" stroke="#bb97c9" stroke-width="1.51"/><path d="M-142,1168L32,1115L36,1042Z" fill="#b88bbd" stroke="#b88bbd" stroke-width="1.51"/><path d="M-185,995L-142,1168L36,1042Z" fill="#bb90c1" stroke="#bb90c1" stroke-width="1.51"/><path d="M-146,96L-128,294L-22,288Z" fill="#cedeec" stroke="#cedeec" stroke-width="1.51"/><path d="M-176,738L-184,821L-71,883Z" fill="#bea9d2" stroke="#bea9d2" stroke-width="1.51"/><path d="M-176,738L-71,883L-35,691Z" fill="#bdabd4" stroke="#bdabd4" stroke-width="1.51"/><path d="M-57,-114L-131,-104L-27,44Z" fill="#e4eef6" stroke="#e4eef6" stroke-width="1.51"/><path d="M-23,387L-176,500L-13,556Z" fill="#bec9e2" stroke="#bec9e2" stroke-width="1.51"/><path d="M-122,-210L-57,-114L5,-233Z" fill="#ebf3f9" stroke="#ebf3f9" stroke-width="1.51"/><path d="M-176,500L-176,738L-35,691Z" fill="#bdbada" stroke="#bdbada" stroke-width="1.51"/><path d="M-128,294L-23,387L-22,288Z" fill="#c5d7e9" stroke="#c5d7e9" stroke-width="1.51"/><path d="M-176,500L-35,691L-13,556Z" fill="#bbbfdd" stroke="#bbbfdd" stroke-width="1.51"/><path d="M-131,-104L-146,96L-27,44Z" fill="#dfebf3" stroke="#dfebf3" stroke-width="1.51"/><path d="M-212,372L-176,500L-23,387Z" fill="#c3d0e6" stroke="#c3d0e6" stroke-width="1.51"/><path d="M-128,294L-212,372L-23,387Z" fill="#c6d7e8" stroke="#c6d7e8" stroke-width="1.51"/><path d="M-122,-210L-131,-104L-57,-114Z" fill="#eaf3f8" stroke="#eaf3f8" stroke-width="1.51"/><path d="M-184,821L-185,995L-71,883Z" fill="#bea0ce" stroke="#bea0ce" stroke-width="1.51"/><path d="M-142,1168L-185,995L-129,1253Z" fill="#bc8cbb" stroke="#bc8cbb" stroke-width="1.51"/><path d="M-146,96L-212,372L-128,294Z" fill="#cedeed" stroke="#cedeed" stroke-width="1.51"/><path d="M-212,372L-131,-104L-122,-210Z" fill="#e0ebf3" stroke="#e0ebf3" stroke-width="1.51"/><path d="M-212,372L-146,96L-131,-104Z" fill="#d9e6f0" stroke="#d9e6f0" stroke-width="1.51"/><path d="M-212,372L-184,821L-176,738Z" fill="#c0bbdb" stroke="#c0bbdb" stroke-width="1.51"/><path d="M-212,372L-176,738L-176,500Z" fill="#c0c7e0" stroke="#c0c7e0" stroke-width="1.51"/><path d="M-212,372L-185,995L-184,821Z" fill="#c0b3d7" stroke="#c0b3d7" stroke-width="1.51"/></svg>